# xmcd
#
# Track frame offsets:
#	150
#	15960
#	32007
#	43530
#	68024
#	84745
#	104559
#	119508
#	136480
#	149956
#	165751
#	185259
#
# Disc length: 3202 seconds
#
# Revision: 0
# Processed by: cddbd v1.5.2PL0 Copyright (c) Steve Scherf et al.
# Submitted via: cdripper v0.1
#
DISCID=a00c800c
DTITLE=Mandy Smith Group - West Texas Sun
DYEAR=2004
DGENRE=country
TTITLE0=Train
TTITLE1=Watch and Chain
TTITLE2=West Texas Sun
TTITLE3=Stay
TTITLE4=Rockin'
TTITLE5=I Am
TTITLE6=Don't Have Time
TTITLE7=Purple Walls
TTITLE8=Last Words
TTITLE9=Birthday Song
TTITLE10=Wishing Train
TTITLE11=Bracelona
EXTD=
EXTT0=
EXTT1=
EXTT2=
EXTT3=
EXTT4=
EXTT5=
EXTT6=
EXTT7=
EXTT8=
EXTT9=
EXTT10=
EXTT11=
PLAYORDER=
